#!OML:ASF H:\LiuWeirdWalks\Patient Classification 1\Patient 1\Session 1\male.ASF
:FULLY-SPECIFIED
:DEGREES
741
root -1.19261 17.4506 -2.20261 7.72465 4.75731 1.46397
lowerback 14.0289 -1.23951 0.778942
upperback 0.3786 -1.23708 3.56942
thorax -7.41932 -0.559356 3.6146
lowerneck -19.9896 0.9571 5.14191
upperneck 19.1736 2.81238 -13.0569
head 9.65741 0.197935 -5.07003
rclavicle -9.54166e-015 1.59028e-015
rhumerus -27.7406 -57.5662 17.4382
rradius 23.7702
rwrist 9.94705
rhand -17.6294 7.32558
rfingers 7.12502
rthumb 8.62799 -22.4781
lclavicle -9.54166e-015 1.59028e-015
lhumerus -8.56541 31.214 0.0435798
lradius 28.1435
lwrist -5.29323
lhand -14.3367 0.164112
lfingers 7.12502
lthumb 11.8044 29.8114
rfemur -22.3958 -7.10299 21.3231
rtibia 46.4283
rfoot -22.907 -24.5388
rtoes -4.50676
lfemur -4.12984 -6.72109 -12.3101
ltibia 54.2934
lfoot 12.0575 -6.62346
ltoes -13.8228
742
root -1.19834 17.4485 -2.14274 7.56082 4.82446 1.23052
lowerback 14.0981 -1.25733 0.808355
upperback 0.434871 -1.25814 3.53694
thorax -7.39784 -0.571723 3.5679
lowerneck -19.9786 0.953843 5.07492
upperneck 19.2775 2.80942 -12.9286
head 9.68785 0.203911 -5.01602
rclavicle -7.95139e-016 -7.95139e-015
rhumerus -27.9175 -57.4969 17.4729
rradius 23.7254
rwrist 9.90539
rhand -17.5574 7.34481
rfingers 7.12502
rthumb 8.6975 -22.456
lclavicle -7.95139e-016 -7.95139e-015
lhumerus -8.73038 31.2448 0.355789
lradius 28.0562
lwrist -5.31057
lhand -14.2002 0.258057
lfingers 7.12502
lthumb 11.9361 29.8978
rfemur -21.8642 -6.93782 21.6026
rtibia 46.1835
rfoot -22.9764 -24.7946
rtoes -4.44684
lfemur -5.20389 -6.26377 -11.8074
ltibia 55.7705
lfoot 10.1556 -6.41987
ltoes -14.5287
743
root -1.2044 17.4469 -2.0825 7.39189 4.91764 1.01486
lowerback 14.1807 -1.28683 0.819011
upperback 0.487858 -1.29819 3.49098
thorax -7.38626 -0.592749 3.52188
lowerneck -19.9368 0.968772 5.05887
upperneck 19.3714 2.81658 -12.8043
head 9.71067 0.219238 -4.97001
rclavicle 1.39149e-014 -1.27222e-014
rhumerus -28.0058 -57.4008 17.4813
rradius 23.6946
rwrist 9.86578
rhand -17.4834 7.39488
rfingers 7.12502
rthumb 8.76885 -22.403
lclavicle 1.39149e-014 -1.27222e-014
lhumerus -8.93021 31.2287 0.675044
lradius 27.9471
lwrist -5.33208
lhand -14.0608 0.390312
lfingers 7.12502
lthumb 12.0705 30.0222
rfemur -21.3228 -6.8319 21.8637
rtibia 45.9327
rfoot -23.03 -25.0176
rtoes -4.43625
lfemur -6.31346 -5.82455 -11.3142
ltibia 57.1883
lfoot 8.3524 -6.14906
ltoes -15.0777
744
root -1.21072 17.4455 -2.02217 7.21922 5.03128 0.809435
lowerback 14.2605 -1.32517 0.822447
upperback 0.550672 -1.35286 3.42714
thorax -7.36209 -0.621113 3.46333
lowerneck -19.9318 0.991276 5.07048
upperneck 19.4754 2.81948 -12.6537
head 9.74309 0.236371 -4.92072
rclavicle 1.35174e-014 -1.51076e-014
rhumerus -28.0195 -57.2812 17.463
rradius 23.678
rwrist 9.77532
rhand -17.4291 7.42206
rfingers 7.12502
rthumb 8.82126 -22.3736
lclavicle 1.35174e-014 -1.51076e-014
lhumerus -9.15102 31.2055 0.996489
lradius 27.8259
lwrist -5.39567
lhand -13.9268 0.479876
lfingers 7.12502
lthumb 12.1997 30.1041
rfemur -20.778 -6.78702 22.1134
rtibia 45.6799
rfoot -23.0714 -25.2012
rtoes -4.47168
lfemur -7.45695 -5.39693 -10.8241
ltibia 58.5401
lfoot 6.64597 -5.83453
ltoes -15.5171
745
root -1.21749 17.444 -1.96197 7.03982 5.17519 0.597208
lowerback 14.3407 -1.37211 0.8371
upperback 0.62417 -1.41818 3.35222
thorax -7.32672 -0.655358 3.38842
lowerneck -19.9261 1.02693 5.14348
upperneck 19.5532 2.82036 -12.5093
head 9.76661 0.257285 -4.88353
rclavicle 1.13307e-014 4.13472e-014
rhumerus -28.0109 -57.1824 17.4798
rradius 23.6699
rwrist 9.72492
rhand -17.3904 7.4221
rfingers 7.12502
rthumb 8.85861 -22.372
lclavicle 1.13307e-014 4.13472e-014
lhumerus -9.37368 31.1818 1.33366
lradius 27.7035
lwrist -5.45561
lhand -13.7988 0.542969
lfingers 7.12502
lthumb 12.3231 30.1598
rfemur -20.227 -6.80854 22.371
rtibia 45.4266
rfoot -23.1286 -25.3357
rtoes -4.51434
lfemur -8.62705 -4.98459 -10.3162
ltibia 59.8172
lfoot 5.03389 -5.49506
ltoes -15.9737
